<svg width="2448" height="1080" viewBox="0 0 2448 1080" fill="none" xmlns="http://www.w3.org/2000/svg">
<path d="M562.203 924.751C473.426 924.751 437.33 781.658 379.15 723.376C320.969 665.093 178.128 628.934 178.128 540.001C178.128 451.069 320.969 414.91 379.15 356.627C437.33 298.344 473.426 155.252 562.203 155.252C650.979 155.252 687.075 298.344 745.255 356.627C803.436 414.91 946.277 451.069 946.277 540.001C946.277 628.934 803.436 665.093 745.255 723.376C687.075 781.658 650.979 924.751 562.203 924.751Z" fill="white"/>
<path d="M340.952 540L467.383 413.347V476.682H593.814L467.383 571.668V666.653L340.952 540Z" fill="black"/>
<path d="M783.453 540L657.022 666.653V603.318H530.591L657.022 508.332V413.347L783.453 540Z" fill="black"/>
<g clip-path="url(#clip0_165_597)">
<path d="M1134.17 341.751C1134.17 370.394 1152.14 388.369 1182.31 388.369H1214.6V349.074H1192.36C1183.53 349.074 1179.26 344.502 1179.26 335.97V258.888H1214.6V219.593H1179.26V180.895H1134.17V219.593H1104V258.888H1134.17V341.751Z" fill="white"/>
<path d="M1281.5 288.723L1281.48 288.74C1281.48 269.54 1291.54 257.662 1307.38 257.662C1323.21 257.662 1333.58 269.54 1333.58 288.74V388.369H1378.68V280.209C1378.68 242.736 1353.4 215.617 1318.36 215.617C1302.21 215.617 1289.12 221.101 1280.28 231.156V169H1236.41V388.352H1281.5V288.723Z" fill="white"/>
<path d="M1485.58 392.329C1517.56 392.329 1544.68 377.701 1560.52 352.106L1526.1 330.173C1516.65 345.099 1502.34 353.631 1485.58 353.631C1462.42 353.631 1446.58 339.318 1441.71 317.384H1567.53C1567.53 317.384 1568.44 311.603 1568.44 303.072C1568.44 253.108 1531.88 215.636 1482.53 215.636C1433.18 215.636 1396.32 255.246 1396.32 304.596C1396.32 353.946 1434.7 392.329 1485.58 392.329ZM1482.84 254.317C1503.86 254.317 1520.31 268.63 1522.75 286.919H1442.62C1448.1 267.421 1463.34 254.317 1482.84 254.317Z" fill="white"/>
<path d="M1199.07 734.152L1199.06 734.17C1182.9 734.17 1169.82 739.653 1160.97 749.709V738.129H1117.1V906.904H1162.2V807.275C1162.2 788.075 1172.25 776.197 1188.09 776.197C1203.93 776.197 1214.3 788.075 1214.3 807.275V906.904H1259.39V798.744C1259.39 761.271 1234.11 734.152 1199.07 734.152Z" fill="white"/>
<path d="M1362.7 734.171C1314.87 734.171 1276.49 773.781 1276.49 823.131C1276.49 872.481 1314.87 910.865 1365.75 910.865C1397.74 910.865 1424.86 896.236 1440.69 870.642L1406.27 848.708C1396.83 863.634 1382.51 872.166 1365.75 872.166C1342.59 872.166 1326.75 857.853 1321.88 835.92H1447.7C1447.7 835.92 1448.61 830.138 1448.61 821.607C1448.61 771.643 1412.05 734.171 1362.7 734.171ZM1322.79 805.472C1328.28 785.974 1343.52 772.87 1363.02 772.87C1384.04 772.87 1400.49 787.183 1402.92 805.472H1322.79Z" fill="white"/>
<path d="M1772.64 738.129L1744.61 848.112L1716.87 738.129H1670.26L1642.84 848.725L1614.51 738.129H1526.37V699.431H1481.28V738.129H1451.11V777.424H1481.28V860.287C1481.28 888.931 1499.26 906.905 1529.42 906.905H1561.71V867.61H1539.48C1530.65 867.61 1526.37 863.038 1526.37 854.506V777.424H1579.74L1615.72 906.905H1667.82L1693.71 799.673L1719.61 906.905H1771.71L1818.32 738.129H1772.64Z" fill="white"/>
<path d="M1906.15 734.171C1856.48 734.171 1817.19 773.168 1817.19 822.518C1817.19 871.868 1856.48 910.865 1906.15 910.865C1955.81 910.865 1995.11 871.868 1995.11 822.518C1995.11 773.168 1955.81 734.171 1906.15 734.171ZM1906.15 866.087C1882.39 866.087 1864.1 847.499 1864.1 822.518C1864.1 797.536 1882.37 778.949 1906.15 778.949C1929.92 778.949 1948.19 797.536 1948.19 822.518C1948.19 847.499 1929.92 866.087 1906.15 866.087Z" fill="white"/>
<path d="M2057.98 752.723V738.13H2014.12V906.906H2059.21V818.243C2059.21 796.31 2071.09 784.117 2093.63 784.117H2104.6V735.976H2096.68C2080.53 735.976 2067.42 741.459 2057.98 752.723Z" fill="white"/>
<path d="M2205.1 814.915L2273.34 738.13H2218.51L2162.45 803.948V687.571H2117.35V906.923H2162.45V826.179L2222.76 906.923H2277L2205.1 814.915Z" fill="white"/>
<path d="M1198.01 612.907C1174.85 612.907 1159.01 598.594 1154.14 576.661H1279.96C1279.96 576.661 1280.87 570.88 1280.87 562.348C1280.87 512.385 1244.31 474.912 1194.96 474.912C1145.61 474.912 1108.75 514.522 1108.75 563.872C1108.75 613.222 1147.13 651.606 1198.01 651.606C1230 651.606 1257.11 636.978 1272.95 611.383L1238.53 589.449C1229.08 604.375 1214.77 612.907 1198.01 612.907ZM1195.26 513.593C1216.28 513.593 1232.73 527.906 1235.16 546.196H1155.03C1160.52 526.697 1175.76 513.593 1195.26 513.593Z" fill="white"/>
<path d="M1344.39 428.294H1299.3V647.646H1344.39V428.294Z" fill="white"/>
<path d="M1492.48 647.647H1537.26V478.871H1492.48V488.016C1480.9 479.485 1465.97 474.912 1449.82 474.912C1401.99 474.912 1362.38 513.611 1362.38 563.259C1362.38 612.907 1401.99 651.606 1449.82 651.606C1465.97 651.606 1480.9 647.033 1492.48 638.502V647.647ZM1451.34 606.81C1427.59 606.81 1409.3 588.223 1409.3 563.241C1409.3 538.26 1427.57 519.672 1451.34 519.672C1475.12 519.672 1493.39 538.26 1493.39 563.241C1493.39 588.223 1475.12 606.81 1451.34 606.81Z" fill="white"/>
<path d="M1848.7 480.377C1864.54 480.377 1877.03 468.184 1877.03 452.347C1877.03 436.51 1864.54 424.317 1848.7 424.317C1832.87 424.317 1820.38 436.51 1820.38 452.347C1820.38 468.184 1833.16 480.377 1848.7 480.377Z" fill="white"/>
<path d="M1975.36 651.606C2007.35 651.606 2034.47 636.68 2049.69 610.472L2010.99 586.103C2003.99 598.892 1991.2 606.828 1975.34 606.828C1951.59 606.828 1933.91 587.943 1933.91 563.259C1933.91 538.575 1951.59 519.69 1975.34 519.69C1991.18 519.69 2003.99 527.608 2010.99 540.415L2049.69 516.046C2034.45 489.838 2007.35 474.912 1975.36 474.912C1926.31 474.912 1887.01 513.909 1887.01 563.259C1887.01 612.609 1926.31 651.606 1975.36 651.606Z" fill="white"/>
<path d="M1723.29 518.164V601.028C1723.29 629.671 1741.26 647.645 1771.43 647.645H1871.25V492.272H1826.16V608.351H1781.48C1772.65 608.351 1768.38 603.778 1768.38 595.247V518.164H1803.71V478.87H1768.38V440.171H1723.29V478.87L1611.71 478.695C1582.37 478.695 1558.5 502.555 1558.5 531.899C1558.5 561.243 1581.87 582.878 1611.73 582.878V582.861L1639.53 582.826C1646.4 582.826 1653.32 586.4 1653.32 594.371C1653.32 602.342 1647.13 608.158 1639.53 608.158H1566V647.575H1643.03C1672.38 647.575 1696.24 623.714 1696.24 594.371C1696.24 565.027 1672.87 543.409 1643.02 543.409L1615.21 543.444C1608.35 543.444 1601.43 539.87 1601.43 531.881C1601.43 523.893 1607.61 518.094 1615.21 518.094L1723.29 518.164Z" fill="white"/>
</g>
<defs>
<clipPath id="clip0_165_597">
<rect width="1173" height="741.865" fill="white" transform="translate(1104 169)"/>
</clipPath>
</defs>
</svg>
